<?xml version="1.0" encoding="UTF-8" standalone="no"?>
<svg
   xmlns:dc="http://purl.org/dc/elements/1.1/"
   xmlns:cc="http://creativecommons.org/ns#"
   xmlns:rdf="http://www.w3.org/1999/02/22-rdf-syntax-ns#"
   xmlns:svg="http://www.w3.org/2000/svg"
   xmlns="http://www.w3.org/2000/svg"
   xmlns:sodipodi="http://sodipodi.sourceforge.net/DTD/sodipodi-0.dtd"
   xmlns:inkscape="http://www.inkscape.org/namespaces/inkscape"
   inkscape:version="1.0 (4035a4fb49, 2020-05-01)"
   sodipodi:docname="APIresize.svg"
   id="svg60"
   preserveAspectRatio="xMidYMid meet"
   viewBox="0 0 735 735"
   height="735pt"
   width="735pt"
   version="1.0">
  <metadata
     id="metadata66">
    <rdf:RDF>
      <cc:Work
         rdf:about="">
        <dc:format>image/svg+xml</dc:format>
        <dc:type
           rdf:resource="http://purl.org/dc/dcmitype/StillImage" />
        <dc:title></dc:title>
      </cc:Work>
    </rdf:RDF>
  </metadata>
  <defs
     id="defs64" />
  <sodipodi:namedview
     inkscape:current-layer="svg60"
     inkscape:window-maximized="1"
     inkscape:window-y="-8"
     inkscape:window-x="-8"
     inkscape:cy="619.56882"
     inkscape:cx="666.66667"
     inkscape:zoom="0.5025"
     showgrid="false"
     id="namedview62"
     inkscape:window-height="837"
     inkscape:window-width="1600"
     inkscape:pageshadow="2"
     inkscape:pageopacity="0"
     guidetolerance="10"
     gridtolerance="10"
     objecttolerance="10"
     borderopacity="1"
     bordercolor="#666666"
     pagecolor="#ffffff" />
  <g
     id="g58"
     stroke="none"
     fill="#000000"
     transform="matrix(0.1,0,0,-0.1,-129.85075,870.14925)">
    <path
       id="path52"
       d="M 4605,8634 C 3873,8553 3200,8268 2646,7804 2497,7679 2254,7432 2136,7285 1723,6770 1457,6146 1364,5475 c -21,-159 -30,-612 -15,-783 99,-1095 677,-2080 1583,-2695 168,-115 291,-186 482,-277 891,-430 1928,-473 2861,-119 174,66 473,214 624,309 255,160 444,312 661,529 469,470 793,1040 955,1681 196,777 129,1602 -192,2340 -201,464 -518,905 -887,1239 -569,513 -1231,820 -2001,927 -168,23 -653,28 -830,8 z M 2930,5850 v -100 h -87 c -101,0 -140,-17 -170,-72 -15,-29 -18,-70 -23,-318 -6,-310 -8,-323 -66,-369 l -27,-21 27,-21 c 58,-46 60,-59 66,-369 5,-262 7,-288 25,-319 35,-60 63,-73 164,-79 l 91,-5 v -95 -95 l -109,5 c -94,5 -119,10 -174,35 -110,52 -177,141 -197,264 -5,35 -10,163 -10,285 0,213 -1,222 -23,255 -12,19 -37,40 -55,48 l -32,15 v 76 76 l 35,13 c 67,24 72,50 77,346 5,298 13,333 93,422 77,87 163,119 323,122 l 72,1 z m 4375,69 c 71,-26 147,-98 185,-174 24,-49 25,-57 31,-320 6,-313 11,-335 79,-363 l 40,-17 v -77 -76 l -35,-12 c -26,-9 -41,-23 -57,-53 -21,-39 -23,-59 -28,-312 -6,-308 -9,-322 -94,-413 -70,-75 -142,-103 -278,-110 l -108,-5 v 95 95 l 89,5 c 71,4 96,10 120,27 63,45 65,58 71,366 6,305 10,330 65,373 l 28,22 -27,21 c -58,46 -60,59 -66,369 -5,248 -8,289 -23,318 -30,55 -69,72 -169,72 h -88 v 102 101 l 103,-6 c 70,-4 122,-13 162,-28 z m -976,-80 c 53,-30 74,-65 79,-130 7,-96 -39,-160 -129,-180 -78,-18 -157,21 -190,95 -25,55 -24,94 4,147 44,83 154,115 236,68 z M 4241,5406 c 81,-27 158,-82 201,-146 64,-94 68,-125 68,-557 v -383 h -145 -145 v 51 51 l -39,-31 c -96,-76 -237,-112 -357,-92 -140,24 -231,88 -286,199 -30,60 -33,75 -33,157 0,78 4,97 28,147 40,82 120,152 204,178 154,47 360,12 456,-78 l 29,-27 -4,107 c -3,103 -4,108 -33,138 -56,59 -99,75 -205,74 -109,-1 -174,-21 -256,-79 -27,-19 -52,-35 -55,-35 -4,0 -29,41 -57,91 l -51,91 27,24 c 46,41 177,103 259,124 102,26 308,23 394,-4 z m 1320,4 c 158,-49 271,-179 314,-364 19,-81 19,-282 0,-365 -36,-153 -125,-275 -245,-335 -177,-88 -372,-64 -502,62 l -48,46 v -272 -272 h -145 -145 v 750 750 h 145 145 v -67 -67 l 38,35 c 91,87 167,117 293,118 60,1 107,-5 150,-19 z m 829,-545 v -545 h -145 -145 v 545 545 h 145 145 z" />
    <path
       id="path54"
       d="m 3906,4796 c -156,-58 -150,-251 8,-296 64,-18 170,-9 226,20 76,38 80,44 80,126 0,70 -1,73 -35,102 -19,17 -51,36 -72,42 -64,19 -164,22 -207,6 z" />
    <path
       id="path56"
       d="m 5243,5166 c -57,-19 -129,-61 -148,-88 -12,-18 -15,-58 -15,-219 v -197 l 42,-36 c 120,-103 302,-99 396,8 104,118 103,339 -3,464 -54,64 -184,97 -272,68 z" />
  </g>
</svg>
