<?xml version="1.0" encoding="UTF-8" standalone="no"?>
<svg
   xmlns:dc="http://purl.org/dc/elements/1.1/"
   xmlns:cc="http://creativecommons.org/ns#"
   xmlns:rdf="http://www.w3.org/1999/02/22-rdf-syntax-ns#"
   xmlns:svg="http://www.w3.org/2000/svg"
   xmlns="http://www.w3.org/2000/svg"
   xmlns:sodipodi="http://sodipodi.sourceforge.net/DTD/sodipodi-0.dtd"
   xmlns:inkscape="http://www.inkscape.org/namespaces/inkscape"
   inkscape:version="1.0 (4035a4fb49, 2020-05-01)"
   sodipodi:docname="responsiveResize.svg"
   id="svg10"
   preserveAspectRatio="xMidYMid meet"
   viewBox="0 0 498.74998 498.74998"
   height="665"
   width="665"
   version="1.0">
  <metadata
     id="metadata16">
    <rdf:RDF>
      <cc:Work
         rdf:about="">
        <dc:format>image/svg+xml</dc:format>
        <dc:type
           rdf:resource="http://purl.org/dc/dcmitype/StillImage" />
        <dc:title></dc:title>
      </cc:Work>
    </rdf:RDF>
  </metadata>
  <defs
     id="defs14" />
  <sodipodi:namedview
     inkscape:current-layer="svg10"
     inkscape:window-maximized="1"
     inkscape:window-y="-8"
     inkscape:window-x="-8"
     inkscape:cy="437.33333"
     inkscape:cx="437.33333"
     inkscape:zoom="0.7660061"
     units="px"
     showgrid="false"
     id="namedview12"
     inkscape:window-height="837"
     inkscape:window-width="1600"
     inkscape:pageshadow="2"
     inkscape:pageopacity="0"
     guidetolerance="10"
     gridtolerance="10"
     objecttolerance="10"
     borderopacity="1"
     bordercolor="#666666"
     pagecolor="#ffffff" />
  <g
     id="g8"
     stroke="none"
     fill="#000000"
     transform="matrix(0.1,0,0,-0.1,-78.25,577.375)">
    <path
       id="path2"
       d="M 820,3690 V 1910 h 1025 1025 v -205 -205 h -442 c -475,-1 -484,-2 -551,-53 -18,-13 -46,-49 -62,-78 -27,-49 -30,-65 -33,-166 l -4,-113 h 1502 1502 l -4,113 c -3,97 -8,119 -30,162 -32,61 -59,87 -118,114 -43,20 -64,21 -492,21 h -448 v 205 205 H 4715 5740 V 3690 5470 H 3280 820 Z m 4648,68 -3,-1433 H 3280 1095 l -3,1433 -2,1432 h 2190 2190 z" />
    <path
       id="path4"
       d="m 1555,4768 c -83,-31 -150,-101 -174,-183 -9,-29 -11,-257 -9,-850 3,-808 3,-810 25,-850 29,-54 78,-99 138,-127 49,-23 56,-23 475,-26 436,-3 525,2 579,35 45,28 92,76 114,118 22,40 22,41 25,854 3,902 5,869 -62,947 -18,22 -55,50 -82,64 l -49,25 -475,2 c -323,1 -485,-2 -505,-9 z m 905,-943 v -685 h -182 c -177,-1 -182,-1 -155,-18 39,-24 71,-93 63,-136 -12,-64 -73,-116 -136,-116 -63,0 -124,52 -136,116 -8,43 24,112 63,136 27,17 22,17 -154,18 h -183 v 685 685 h 410 410 z" />
    <path
       id="path6"
       d="m 3195,4768 c -83,-30 -150,-101 -174,-183 -9,-29 -11,-257 -9,-850 3,-808 3,-810 25,-850 29,-54 78,-99 138,-127 l 50,-23 835,-3 c 854,-3 931,0 989,35 45,28 92,76 114,118 22,40 22,41 25,854 3,902 5,869 -62,947 -18,22 -55,50 -82,64 l -49,25 -885,2 c -616,1 -894,-2 -915,-9 z m 1725,-943 v -685 h -387 c -371,-1 -387,-1 -360,-18 39,-24 71,-93 63,-136 -12,-64 -73,-116 -136,-116 -63,0 -124,52 -136,116 -8,43 24,112 63,136 27,17 11,17 -359,18 h -388 v 685 685 h 820 820 z" />
  </g>
</svg>
